<svg width="24" height="24" viewBox="0 0 24 24" fill="none" xmlns="http://www.w3.org/2000/svg">
<g clip-path="url(#clip0_40_998)">
<path d="M23.25 13.5V18" stroke="#47C0A2" stroke-width="1.5" stroke-linecap="round" stroke-linejoin="round"/>
<path d="M17.25 3.4397L4.93968 15.75" stroke="#47C0A2" stroke-width="1.5" stroke-linecap="round" stroke-linejoin="round"/>
<path d="M0.805319 15.4304C0.779255 15.4566 0.761523 15.49 0.754354 15.5262C0.747184 15.5625 0.750895 15.6001 0.765022 15.6342C0.779148 15.6684 0.803059 15.6976 0.833749 15.7183C0.864439 15.7389 0.900537 15.7499 0.937506 15.7501H4.93969L8.46938 19.2807C8.53903 19.3505 8.62175 19.4058 8.7128 19.4435C8.80385 19.4813 8.90144 19.5007 9.00001 19.5007C9.09857 19.5007 9.19616 19.4813 9.28721 19.4435C9.37826 19.4058 9.46098 19.3505 9.53063 19.2807L20.7806 8.03073C20.8504 7.96107 20.9057 7.87836 20.9434 7.78731C20.9812 7.69626 21.0006 7.59866 21.0006 7.5001C21.0006 7.40154 20.9812 7.30395 20.9434 7.2129C20.9057 7.12185 20.8504 7.03913 20.7806 6.96948L15.5306 1.71948C15.461 1.64974 15.3783 1.59443 15.2872 1.55668C15.1962 1.51894 15.0986 1.49951 15 1.49951C14.9014 1.49951 14.8038 1.51894 14.7128 1.55668C14.6218 1.59443 14.539 1.64974 14.4694 1.71948L0.805319 15.4304Z" stroke="#47C0A2" stroke-width="1.5" stroke-linecap="round" stroke-linejoin="round"/>
<path d="M15.5306 13.2805L17.7806 15.5305C17.9212 15.6709 18.1117 15.7498 18.3103 15.7499H23.25" stroke="#47C0A2" stroke-width="1.5" stroke-linecap="round" stroke-linejoin="round"/>
</g>
<defs>
<clipPath id="clip0_40_998">
<rect width="24" height="24" fill="white"/>
</clipPath>
</defs>
</svg>
