<svg width="24" height="24" viewBox="0 0 24 24" fill="none" xmlns="http://www.w3.org/2000/svg">
<g clip-path="url(#clip0_40_1035)">
<path d="M13.5 3H10.5C10.0858 3 9.75 3.33579 9.75 3.75V6.75C9.75 7.16421 10.0858 7.5 10.5 7.5H13.5C13.9142 7.5 14.25 7.16421 14.25 6.75V3.75C14.25 3.33579 13.9142 3 13.5 3Z" stroke="#47C0A2" stroke-width="1.5" stroke-linecap="round" stroke-linejoin="round"/>
<path d="M7.5 15.75H4.5C4.08579 15.75 3.75 16.0858 3.75 16.5V19.5C3.75 19.9142 4.08579 20.25 4.5 20.25H7.5C7.91421 20.25 8.25 19.9142 8.25 19.5V16.5C8.25 16.0858 7.91421 15.75 7.5 15.75Z" stroke="#47C0A2" stroke-width="1.5" stroke-linecap="round" stroke-linejoin="round"/>
<path d="M19.5 15.75H16.5C16.0858 15.75 15.75 16.0858 15.75 16.5V19.5C15.75 19.9142 16.0858 20.25 16.5 20.25H19.5C19.9142 20.25 20.25 19.9142 20.25 19.5V16.5C20.25 16.0858 19.9142 15.75 19.5 15.75Z" stroke="#47C0A2" stroke-width="1.5" stroke-linecap="round" stroke-linejoin="round"/>
<path d="M12 7.5V11.25" stroke="#47C0A2" stroke-width="1.5" stroke-linecap="round" stroke-linejoin="round"/>
<path d="M18 11.25V15.75" stroke="#47C0A2" stroke-width="1.5" stroke-linecap="round" stroke-linejoin="round"/>
<path d="M6 15.75V11.25" stroke="#47C0A2" stroke-width="1.5" stroke-linecap="round" stroke-linejoin="round"/>
<path d="M2.25 11.25H21.75" stroke="#47C0A2" stroke-width="1.5" stroke-linecap="round" stroke-linejoin="round"/>
</g>
<defs>
<clipPath id="clip0_40_1035">
<rect width="24" height="24" fill="white"/>
</clipPath>
</defs>
</svg>
