<svg width="24" height="24" viewBox="0 0 24 24" fill="none" xmlns="http://www.w3.org/2000/svg">
<g clip-path="url(#clip0_40_1062)">
<path d="M10.125 15.75C13.2316 15.75 15.75 13.2316 15.75 10.125C15.75 7.0184 13.2316 4.5 10.125 4.5C7.0184 4.5 4.5 7.0184 4.5 10.125C4.5 13.2316 7.0184 15.75 10.125 15.75Z" stroke="#47C0A2" stroke-width="1.5" stroke-linecap="round" stroke-linejoin="round"/>
<path d="M2.25 19.5C4.17656 17.2078 6.89625 15.75 10.125 15.75C13.3537 15.75 16.0734 17.2078 18 19.5" stroke="#47C0A2" stroke-width="1.5" stroke-linecap="round" stroke-linejoin="round"/>
<path d="M18.75 6.44434C19.2449 7.6083 19.5 8.86014 19.5 10.125C19.5 11.3898 19.2449 12.6416 18.75 13.8056" stroke="#47C0A2" stroke-width="1.5" stroke-linecap="round" stroke-linejoin="round"/>
<path d="M21.5024 5.25C22.1606 6.791 22.4999 8.44933 22.4999 10.125C22.4999 11.8007 22.1606 13.459 21.5024 15" stroke="#47C0A2" stroke-width="1.5" stroke-linecap="round" stroke-linejoin="round"/>
</g>
<defs>
<clipPath id="clip0_40_1062">
<rect width="24" height="24" fill="white"/>
</clipPath>
</defs>
</svg>
