<svg width="24" height="24" viewBox="0 0 24 24" fill="none" xmlns="http://www.w3.org/2000/svg">
<g clip-path="url(#clip0_295_1378)">
<path d="M7.5 4.20557L12 11.9999" stroke="#47C0A2" stroke-width="1.5" stroke-linecap="round" stroke-linejoin="round"/>
<path d="M7.5 19.7944L12 12" stroke="#47C0A2" stroke-width="1.5" stroke-linecap="round" stroke-linejoin="round"/>
<path d="M21 12H12" stroke="#47C0A2" stroke-width="1.5" stroke-linecap="round" stroke-linejoin="round"/>
<path d="M10.9297 3.06189C12.6279 3.82175 14.0488 5.08919 14.997 6.68983C15.9453 8.29046 16.3741 10.1456 16.2247 12" stroke="#47C0A2" stroke-width="1.5" stroke-linecap="round" stroke-linejoin="round"/>
<path d="M4.79442 17.3962C4.60389 15.546 4.99132 13.6821 5.90342 12.0611C6.81552 10.44 8.20749 9.14134 9.88786 8.34375" stroke="#47C0A2" stroke-width="1.5" stroke-linecap="round" stroke-linejoin="round"/>
<path d="M20.2761 15.5419C18.7687 16.6323 16.9604 17.2289 15.1001 17.2493C13.2397 17.2698 11.4187 16.7133 9.8877 15.6562" stroke="#47C0A2" stroke-width="1.5" stroke-linecap="round" stroke-linejoin="round"/>
<path d="M12 21C16.9706 21 21 16.9706 21 12C21 7.02944 16.9706 3 12 3C7.02944 3 3 7.02944 3 12C3 16.9706 7.02944 21 12 21Z" stroke="#47C0A2" stroke-width="1.5" stroke-linecap="round" stroke-linejoin="round"/>
</g>
<defs>
<clipPath id="clip0_295_1378">
<rect width="24" height="24" fill="white"/>
</clipPath>
</defs>
</svg>
