<svg width="16" height="16" viewBox="0 0 16 16" fill="none" xmlns="http://www.w3.org/2000/svg">
<g clip-path="url(#clip0_40_782)">
<path d="M13.25 13.5C14.2165 13.5 15 12.7165 15 11.75C15 10.7835 14.2165 10 13.25 10C12.2835 10 11.5 10.7835 11.5 11.75C11.5 12.7165 12.2835 13.5 13.25 13.5Z" stroke="#47C0A2" stroke-linecap="round" stroke-linejoin="round"/>
<path d="M4.25 13.5C5.76878 13.5 7 12.2688 7 10.75C7 9.23122 5.76878 8 4.25 8C2.73122 8 1.5 9.23122 1.5 10.75C1.5 12.2688 2.73122 13.5 4.25 13.5Z" stroke="#47C0A2" stroke-linecap="round" stroke-linejoin="round"/>
<path d="M4.25 11.5C4.66421 11.5 5 11.1642 5 10.75C5 10.3358 4.66421 10 4.25 10C3.83579 10 3.5 10.3358 3.5 10.75C3.5 11.1642 3.83579 11.5 4.25 11.5Z" fill="#47C0A2"/>
<path d="M14.5 10.5V8.375C14.5 8.26751 14.4653 8.16289 14.4011 8.07665C14.337 7.99041 14.2467 7.92715 14.1438 7.89625L9 6.5V3H3.5V6" stroke="#47C0A2" stroke-linecap="round" stroke-linejoin="round"/>
<path d="M2.5 3H3.5" stroke="#47C0A2" stroke-linecap="round" stroke-linejoin="round"/>
<path d="M9 3H10" stroke="#47C0A2" stroke-linecap="round" stroke-linejoin="round"/>
<path d="M2.5 6H4.25C5.50978 6 6.71796 6.50045 7.60876 7.39124C8.49955 8.28204 9 9.49022 9 10.75V11.5H11.5175" stroke="#47C0A2" stroke-linecap="round" stroke-linejoin="round"/>
<path d="M9 6.5V11.5" stroke="#47C0A2" stroke-linecap="round" stroke-linejoin="round"/>
<path d="M11.5 7.17688V4.5" stroke="#47C0A2" stroke-linecap="round" stroke-linejoin="round"/>
</g>
<defs>
<clipPath id="clip0_40_782">
<rect width="16" height="16" fill="white"/>
</clipPath>
</defs>
</svg>
