<svg width="16" height="16" viewBox="0 0 16 16" fill="none" xmlns="http://www.w3.org/2000/svg">
<g clip-path="url(#clip0_40_794)">
<path d="M2 8.5H4.5L5.5 7L7.5 10L8.5 8.5H10" stroke="#47C0A2" stroke-linecap="round" stroke-linejoin="round"/>
<path d="M1.5 6.5C1.5 6.45812 1.5 6.41688 1.5 6.375C1.5 5.47989 1.85558 4.62145 2.48851 3.98851C3.12145 3.35558 3.97989 3 4.875 3C6.28688 3 7.49625 3.76937 8 5C8.50375 3.76937 9.71312 3 11.125 3C12.0201 3 12.8785 3.35558 13.5115 3.98851C14.1444 4.62145 14.5 5.47989 14.5 6.375C14.5 10.5 8 14 8 14C8 14 5.375 12.5875 3.46375 10.5" stroke="#47C0A2" stroke-linecap="round" stroke-linejoin="round"/>
</g>
<defs>
<clipPath id="clip0_40_794">
<rect width="16" height="16" fill="white"/>
</clipPath>
</defs>
</svg>
