<svg width="16" height="16" viewBox="0 0 16 16" fill="none" xmlns="http://www.w3.org/2000/svg">
<g clip-path="url(#clip0_40_803)">
<path d="M3.5 14.5L8 5.5L12.5 14.5" stroke="#47C0A2" stroke-linecap="round" stroke-linejoin="round"/>
<path d="M5.54 5.94835C5.47479 5.58818 5.48945 5.21808 5.58297 4.8642C5.67649 4.51032 5.84657 4.18129 6.0812 3.90036C6.31584 3.61943 6.6093 3.39345 6.94085 3.23837C7.27241 3.0833 7.63397 3.00293 8 3.00293C8.36603 3.00293 8.72759 3.0833 9.05915 3.23837C9.3907 3.39345 9.68416 3.61943 9.9188 3.90036C10.1534 4.18129 10.3235 4.51032 10.417 4.8642C10.5105 5.21808 10.5252 5.58818 10.46 5.94835" stroke="#47C0A2" stroke-linecap="round" stroke-linejoin="round"/>
<path d="M4.40813 8.21129C3.90401 7.54332 3.59614 6.74801 3.51911 5.91471C3.44208 5.08141 3.59894 4.24314 3.97206 3.49407C4.34519 2.74501 4.9198 2.11483 5.63134 1.67434C6.34288 1.23384 7.16315 1.00049 8 1.00049C8.83685 1.00049 9.65713 1.23384 10.3687 1.67434C11.0802 2.11483 11.6548 2.74501 12.0279 3.49407C12.4011 4.24314 12.5579 5.08141 12.4809 5.91471C12.4039 6.74801 12.096 7.54332 11.5919 8.21129" stroke="#47C0A2" stroke-linecap="round" stroke-linejoin="round"/>
<path d="M4.5 12.5H11.5" stroke="#47C0A2" stroke-linecap="round" stroke-linejoin="round"/>
<path d="M5.5 10.5H10.5" stroke="#47C0A2" stroke-linecap="round" stroke-linejoin="round"/>
</g>
<defs>
<clipPath id="clip0_40_803">
<rect width="16" height="16" fill="white"/>
</clipPath>
</defs>
</svg>
