<svg width="24" height="24" viewBox="0 0 24 24" fill="none" xmlns="http://www.w3.org/2000/svg">
<g clip-path="url(#clip0_40_976)">
<path d="M18.75 5.25L13.5 10.5" stroke="#47C0A2" stroke-width="1.5" stroke-linecap="round" stroke-linejoin="round"/>
<path d="M6.96935 12.4632C6.89962 12.3935 6.8443 12.3108 6.80656 12.2197C6.76882 12.1287 6.74939 12.0311 6.74939 11.9325C6.74939 11.834 6.76882 11.7364 6.80656 11.6453C6.8443 11.5543 6.89962 11.4716 6.96935 11.4019L7.71935 10.6519C7.84971 10.5533 8.00871 10.5 8.17217 10.5H9.74998C9.94889 10.5 10.1397 10.421 10.2803 10.2804C10.421 10.1397 10.5 9.94895 10.5 9.75003V8.18535C10.5001 7.9867 10.579 7.7962 10.7194 7.65566L15.7097 2.66535C16.079 2.29593 16.5174 2.00289 17 1.80296C17.4826 1.60303 17.9998 1.50012 18.5222 1.50012C19.0445 1.50012 19.5618 1.60303 20.0443 1.80296C20.5269 2.00289 20.9654 2.29593 21.3347 2.66535C21.7041 3.03465 21.9971 3.47311 22.1971 3.95568C22.397 4.43826 22.4999 4.95549 22.4999 5.47785C22.4999 6.0002 22.397 6.51743 22.1971 7.00001C21.9971 7.48258 21.7041 7.92104 21.3347 8.29035L16.3444 13.2807C16.2038 13.421 16.0133 13.4999 15.8147 13.5H14.25C14.0511 13.5 13.8603 13.5791 13.7196 13.7197C13.579 13.8604 13.5 14.0511 13.5 14.25V15.8278C13.5001 15.9913 13.4467 16.1503 13.3481 16.2807L12.5981 17.0307C12.5285 17.1004 12.4457 17.1557 12.3547 17.1935C12.2636 17.2312 12.166 17.2506 12.0675 17.2506C11.9689 17.2506 11.8713 17.2312 11.7803 17.1935C11.6892 17.1557 11.6065 17.1004 11.5369 17.0307L6.96935 12.4632Z" stroke="#47C0A2" stroke-width="1.5" stroke-linecap="round" stroke-linejoin="round"/>
<path d="M9.25312 14.7468L1.5 22.5" stroke="#47C0A2" stroke-width="1.5" stroke-linecap="round" stroke-linejoin="round"/>
</g>
<defs>
<clipPath id="clip0_40_976">
<rect width="24" height="24" fill="white"/>
</clipPath>
</defs>
</svg>
