<svg width="98" height="98" viewBox="0 0 98 98" fill="none" xmlns="http://www.w3.org/2000/svg">
<g clip-path="url(#clip0_255_2324)">
<path d="M15.2233 85.25C20.2678 85.25 24.3572 81.1606 24.3572 76.1161C24.3572 71.0716 20.2678 66.9822 15.2233 66.9822C10.1788 66.9822 6.08936 71.0716 6.08936 76.1161C6.08936 81.1606 10.1788 85.25 15.2233 85.25Z" stroke="white" stroke-width="6.64286" stroke-linecap="round" stroke-linejoin="round"/>
<path d="M36.5358 45.6696C41.5803 45.6696 45.6697 41.5802 45.6697 36.5357C45.6697 31.4911 41.5803 27.4017 36.5358 27.4017C31.4913 27.4017 27.4019 31.4911 27.4019 36.5357C27.4019 41.5802 31.4913 45.6696 36.5358 45.6696Z" stroke="white" stroke-width="6.64286" stroke-linecap="round" stroke-linejoin="round"/>
<path d="M60.8927 70.0268C65.9372 70.0268 70.0266 65.9374 70.0266 60.8928C70.0266 55.8483 65.9372 51.7589 60.8927 51.7589C55.8482 51.7589 51.7588 55.8483 51.7588 60.8928C51.7588 65.9374 55.8482 70.0268 60.8927 70.0268Z" stroke="white" stroke-width="6.64286" stroke-linecap="round" stroke-linejoin="round"/>
<path d="M82.2052 30.4464C87.2497 30.4464 91.3391 26.357 91.3391 21.3125C91.3391 16.268 87.2497 12.1786 82.2052 12.1786C77.1607 12.1786 73.0713 16.268 73.0713 21.3125C73.0713 26.357 77.1607 30.4464 82.2052 30.4464Z" stroke="white" stroke-width="6.64286" stroke-linecap="round" stroke-linejoin="round"/>
<path d="M32.2047 44.5774L19.5542 68.0744" stroke="white" stroke-width="6.64286" stroke-linecap="round" stroke-linejoin="round"/>
<path d="M54.4344 54.4344L42.9941 42.9941" stroke="white" stroke-width="6.64286" stroke-linecap="round" stroke-linejoin="round"/>
<path d="M77.8741 29.3541L65.2236 52.8512" stroke="white" stroke-width="6.64286" stroke-linecap="round" stroke-linejoin="round"/>
</g>
<defs>
<clipPath id="clip0_255_2324">
<rect width="97.4286" height="97.4286" fill="white"/>
</clipPath>
</defs>
</svg>
