<svg width="16" height="16" viewBox="0 0 16 16" fill="none" xmlns="http://www.w3.org/2000/svg">
<g clip-path="url(#clip0_297_1654)">
<path d="M10.2744 9.08374C10.3436 9.03766 10.4233 9.00959 10.5061 9.00206C10.5889 8.99453 10.6723 9.00778 10.7488 9.04061L13.6963 10.3612C13.7956 10.4037 13.8785 10.4772 13.9326 10.5707C13.9867 10.6642 14.009 10.7727 13.9963 10.88C13.8991 11.6056 13.5418 12.2713 12.9907 12.7533C12.4395 13.2352 11.7321 13.5005 11 13.5C8.74566 13.5 6.58365 12.6045 4.98959 11.0104C3.39553 9.41633 2.5 7.25433 2.5 4.99999C2.49944 4.26786 2.7648 3.56045 3.24673 3.00932C3.72865 2.45818 4.39435 2.10084 5.12 2.00374C5.22727 1.99099 5.33578 2.01333 5.4293 2.06741C5.52281 2.12149 5.5963 2.2044 5.63875 2.30374L6.95938 5.25374C6.99182 5.3295 7.00504 5.41212 6.99784 5.49423C6.99064 5.57634 6.96326 5.65539 6.91813 5.72436L5.5825 7.31249C5.53512 7.38398 5.50711 7.46654 5.50119 7.55209C5.49528 7.63765 5.51166 7.72328 5.54875 7.80061C6.06563 8.85874 7.15938 9.93936 8.22063 10.4512C8.29836 10.4882 8.38439 10.5042 8.47021 10.4977C8.55602 10.4912 8.63867 10.4625 8.71 10.4144L10.2744 9.08374Z" stroke="white" stroke-width="1.5" stroke-linecap="round" stroke-linejoin="round"/>
</g>
<defs>
<clipPath id="clip0_297_1654">
<rect width="16" height="16" fill="white"/>
</clipPath>
</defs>
</svg>
