<svg width="24" height="24" viewBox="0 0 24 24" fill="none" xmlns="http://www.w3.org/2000/svg">
<g clip-path="url(#clip0_40_1072)">
<path d="M15.75 22.5H9.75C9.55109 22.5 9.36032 22.421 9.21967 22.2803C9.07902 22.1397 9 21.9489 9 21.75V9.75C9 8.75544 9.39509 7.80161 10.0983 7.09835C10.8016 6.39509 11.7554 6 12.75 6C13.7446 6 14.6984 6.39509 15.4017 7.09835C16.1049 7.80161 16.5 8.75544 16.5 9.75V21.75C16.5 21.9489 16.421 22.1397 16.2803 22.2803C16.1397 22.421 15.9489 22.5 15.75 22.5Z" stroke="#47C0A2" stroke-width="1.5" stroke-linecap="round" stroke-linejoin="round"/>
<path d="M6 15.75H16.5" stroke="#47C0A2" stroke-width="1.5" stroke-linecap="round" stroke-linejoin="round"/>
<path d="M12.75 6V3" stroke="#47C0A2" stroke-width="1.5" stroke-linecap="round" stroke-linejoin="round"/>
<path d="M17.25 0.75L12.75 3L20.25 5.25" stroke="#47C0A2" stroke-width="1.5" stroke-linecap="round" stroke-linejoin="round"/>
<path d="M6 19.5V9.75C6 7.95979 6.71116 6.2429 7.97703 4.97703C9.2429 3.71116 10.9598 3 12.75 3" stroke="#47C0A2" stroke-width="1.5" stroke-linecap="round" stroke-linejoin="round"/>
</g>
<defs>
<clipPath id="clip0_40_1072">
<rect width="24" height="24" fill="white"/>
</clipPath>
</defs>
</svg>
