<svg width="16" height="16" viewBox="0 0 16 16" fill="none" xmlns="http://www.w3.org/2000/svg">
<g clip-path="url(#clip0_519_1653)">
<path d="M5.00049 8.42929L10.6417 13.3749C10.7067 13.4322 10.7855 13.4717 10.8703 13.4894C10.9551 13.5071 11.0431 13.5025 11.1256 13.476C11.2081 13.4494 11.2823 13.4019 11.3409 13.3381C11.3995 13.2742 11.4405 13.1963 11.4599 13.1118L14.0005 2.07617C14.003 2.0651 14.0024 2.05357 13.9988 2.04281C13.9952 2.03204 13.9888 2.02246 13.9802 2.01507C13.9716 2.00769 13.9611 2.00278 13.95 2.00088C13.9388 1.99898 13.9273 2.00016 13.9167 2.00429L1.25049 6.96117C1.17186 6.99143 1.10516 7.04638 1.06042 7.11778C1.01568 7.18917 0.995296 7.27315 1.00234 7.35711C1.00938 7.44107 1.04347 7.52048 1.09948 7.58342C1.1555 7.64635 1.23041 7.68943 1.31299 7.70617L5.00049 8.42929Z" stroke="white" stroke-width="1.5" stroke-linecap="round" stroke-linejoin="round"/>
<path d="M5 8.42937L13.9631 2.00562" stroke="white" stroke-width="1.5" stroke-linecap="round" stroke-linejoin="round"/>
<path d="M7.77313 10.8613L5.86 12.8463C5.79087 12.918 5.7019 12.9675 5.60448 12.9883C5.50707 13.0091 5.40566 13.0004 5.31326 12.9632C5.22086 12.9259 5.14167 12.862 5.08586 12.7795C5.03004 12.697 5.00015 12.5997 5 12.5001V8.42944" stroke="white" stroke-width="1.5" stroke-linecap="round" stroke-linejoin="round"/>
</g>
<defs>
<clipPath id="clip0_519_1653">
<rect width="16" height="16" fill="white"/>
</clipPath>
</defs>
</svg>
